{"title":"Galavant.S02E01.480p.WEB-DL.x264-itunes.mp4","uid":13149297,"size":339575862,"categoryP":"video","categoryS":"tv_shows","magnet":"?xt=urn:btih:c82c214a8a8b0d125a1efa416819a35973f838cd&amp;dn=Galavant.S02E01.480p.WEB-DL.x264-itunes.mp4&amp;tr=udp%3A%2F%2Ftracker.leechers-paradise.org%3A6969&amp;tr=udp%3A%2F%2Fzer0day.ch%3A1337&amp;tr=udp%3A%2F%2Fopen.demonii.com%3A1337&amp;tr=udp%3A%2F%2Ftracker.coppersurfer.tk%3A6969&amp;tr=udp%3A%2F%2Fexodus.desync.com%3A6969","seeders":0,"leechers":0,"uploader":null,"files":1,"time":1452041506,"description":"Converted from itunes m4v without re-encoding!\r\n\r\nSame great quality as itunes SD file!\r\n\r\nFormat : MPEG-4\r\nFormat profile : Base Media / Version 2\r\nCodec ID : mp42\r\nFile size : 324 MiB\r\nDuration : 21mn 31s\r\nOverall bit rate mode : Variable\r\nOverall bit rate : 2 103 Kbps\r\nSeason : 2\r\nMovie name : Galavant\r\nAlbum/Sorted by : Galavant, Season 2\r\nPart : 1\r\nPart/Position : 1\r\nPart/Total : 1\r\nTrack name/Position : 1\r\nTrack name/Total : 3\r\nPerformer : Galavant\r\nPerformer/Sorted by : Galavant\r\nContentType : TV Show\r\nDescription : Bad advice results in Galavant and the crew being shipwrecked, and they end up traveling by foot in\r\nRecorded date : UTC 2016-01-03 08:00:00\r\nEncoded date : UTC 2016-01-04 14:08:11\r\nTagged date : UTC 2016-01-04 14:09:38\r\nCover : Yes\r\nRating : None\r\nPart_ID : 201\r\nTitle/Sort : New Season aka Suck It Cancellation Bear\r\nLongDescription : Bad advice results in Galavant and the crew being shipwrecked, and they end up traveling by foot in order to get back to Richard's kingdom. Later, Galavant and King Richard find themselves at The Enchanted Forest Pub in West Hollow-wood where they are forced into working there by the owner who sees Galavant in a different light.\r\n\r\nVideo\r\nID : 2\r\nFormat : AVC\r\nFormat/Info : Advanced Video Codec\r\nFormat profile :   \r\nFormat settings, CABAC : No\r\nFormat settings, ReFrames : 1 frame\r\nCodec ID : avc1\r\nCodec ID/Info : Advanced Video Coding\r\nDuration : 21mn 31s\r\nBit rate : 1 594 Kbps\r\nWidth : 640 pixels\r\nHeight : 480 pixels\r\nDisplay aspect ratio : 16:9\r\nFrame rate mode : Constant\r\nFrame rate : 23.976 fps\r\nColor space : YUV\r\nChroma subsampling : 4:2:0\r\nBit depth : 8 bits\r\nScan type : Progressive\r\nBits/(Pixel*Frame) : 0.216\r\nStream size : 246 MiB (76%)\r\nLanguage : English\r\nEncoded date : UTC 2016-01-04 14:09:03\r\nTagged date : UTC 2016-01-04 14:09:15\r\nColor primaries : BT.601 NTSC\r\nTransfer characteristics : BT.709\r\nMatrix coefficients : BT.601\r\n\r\nAudio #1\r\nID : 1\r\nFormat : AAC\r\nFormat/Info : Advanced Audio Codec\r\nFormat profile : LC\r\nCodec ID : 40\r\nDuration : 21mn 31s\r\nBit rate mode : Variable\r\nBit rate : 120 Kbps\r\nMaximum bit rate : 214 Kbps\r\nChannel(s) : 2 channels\r\nChannel positions : Front: L R\r\nSampling rate : 44.1 KHz\r\nCompression mode : Lossy\r\nStream size : 18.5 MiB (6%)\r\nLanguage : English\r\nEncoded date : UTC 2016-01-04 14:08:12\r\nTagged date : UTC 2016-01-04 14:09:03\r\n\r\nAudio #2\r\nID : 4\r\nFormat : AC-3\r\nFormat/Info : Audio Coding 3\r\nMode extension : CM (complete main)\r\nFormat settings, Endianness : Big\r\nCodec ID : ac-3\r\nDuration : 21mn 31s\r\nBit rate mode : Constant\r\nBit rate : 384 Kbps\r\nChannel(s) : 6 channels\r\nChannel positions : Front: L C R, Side: L R, LFE\r\nSampling rate : 48.0 KHz\r\nBit depth : 16 bits\r\nCompression mode : Lossy\r\nStream size : 59.1 MiB (18%)\r\nLanguage : English\r\nEncoded date : UTC 2016-01-04 14:09:16\r\nTagged date : UTC 2016-01-04 14:09:38\r\n\r\nText\r\nID : 3-CC1\r\nFormat : EIA-608\r\nMuxing mode : Final Cut\r\nCodec ID : c608\r\nDuration : 21mn 24s\r\nBit rate mode : Constant\r\nStream size : 0.00 Byte (0%)\r\nLanguage : English\r\nEncoded date : UTC 2016-01-04 14:09:15\r\nTagged date : UTC 2016-01-04 14:09:16","torrent":{"xt":"urn:btih:c82c214a8a8b0d125a1efa416819a35973f838cd","amp;dn":"Galavant.S02E01.480p.WEB-DL.x264-itunes.mp4","amp;tr":["udp%3A%2F%2Ftracker.leechers-paradise.org%3A6969","udp%3A%2F%2Fzer0day.ch%3A1337","udp%3A%2F%2Fopen.demonii.com%3A1337","udp%3A%2F%2Ftracker.coppersurfer.tk%3A6969","udp%3A%2F%2Fexodus.desync.com%3A6969"],"infoHash":"c82c214a8a8b0d125a1efa416819a35973f838cd","infoHashBuffer":{"type":"Buffer","data":[200,44,33,74,138,139,13,18,90,30,250,65,104,25,163,89,115,248,56,205]},"announce":[],"urlList":[]}}